# xmcd CD Database Entry
#
# Track frame offsets:
# 150
# 19487
# 44829
# 64225
# 80986
# 101162
# 121012
# 146512
# 169925
# 186842
#
# Disc length: 2770 seconds
#
# Revision: 2
# Processed by: cddbd v1.4b41PL1 Copyright (c) Steve Scherf et al.
# Submitted via: tcd 2.0b
#
DISCID=970ad00a
DTITLE=llegas - el pesanervios
DYEAR=1900
DGENRE=
TTITLE0=antifaz
TTITLE1=respiros
TTITLE2=huesos
TTITLE3=simple
TTITLE4=sola
TTITLE5=subterránea
TTITLE6=alas
TTITLE7=invisible
TTITLE8=anestesias
TTITLE9=sal
EXTD=
EXTT0=
EXTT1=
EXTT2=
EXTT3=
EXTT4=
EXTT5=
EXTT6=
EXTT7=
EXTT8=
EXTT9=
PLAYORDER=
